Lock.Stock.and.Two.Smoking.Barrels.1998.720p.BRRip.x264.aac.mp4-anoXmous

Format                           : MPEG-4
Format profile                   : Base Media
Codec ID                         : isom
File size                        : 699 MiB
Duration                         : 1h 47mn
Overall bit rate mode            : Variable
Overall bit rate                 : 910 Kbps


Video
ID                               : 1
Format                           : AVC
Format/Info                      : Advanced Video Codec
Format profile                   : High@L4.1
Format settings, CABAC           : Yes
Format settings, ReFrames        : 4 frames
Codec ID                         : avc1
Codec ID/Info                    : Advanced Video Coding
Duration                         : 1h 47mn
Bit rate                         : 840 Kbps
Maximum bit rate                 : 4 311 Kbps
Width                            : 1 280 pixels
Height                           : 688 pixels
Display aspect ratio             : 1.860
Frame rate mode                  : Constant
Frame rate                       : 23.976 fps
Color space                      : YUV
Chroma subsampling               : 4:2:0
Bit depth                        : 8 bits
Scan type                        : Progressive
Bits/(Pixel*Frame)               : 0.040
Stream size                      : 645 MiB (92%)
Writing library                  : x264 core 119 r2106 07efeb4


Audio
ID                               : 2
Format                           : AAC
Format/Info                      : Advanced Audio Codec
Format profile                   : LC
Codec ID                         : 40
Duration                         : 1h 47mn
Bit rate mode                    : Variable
Bit rate                         : 66.2 Kbps
Maximum bit rate                 : 125 Kbps
Channel(s)                       : 2 channels
Channel positions                : Front: L R
Sampling rate                    : 48.0 KHz
Compression mode                 : Lossy
Stream size                      : 51.4 MiB (7%)
Language                         : English


                                SUB:

Lock.Stock.and.Two.Smoking.Barrels.1998.720p.BRRip.x264.aac.mp4-anoXmous_eng.srt

Lock.Stock.and.Two.Smoking.Barrels.1998.720p.BRRip.x264.aac.mp4-anoXmous_swe.srt


Menu
00:00:00.000                     : 01
00:07:57.769                     : 02
00:12:36.464                     : 03
00:18:01.163                     : 04
00:24:43.691                     : 05
00:30:59.858                     : 06
00:36:26.976                     : 07
00:40:04.777                     : 08
00:45:37.652                     : 09
00:51:30.546                     : 10
00:53:15.693                     : 11
01:03:14.708                     : 12
01:08:25.810                     : 13
01:14:23.250                     : 14
01:19:42.653                     : 15
01:30:50.612                     : 16
01:35:10.538                     : 17
01:43:18.484                     : 18
 
http://www.imdb.com/title/tt0120735/

This 1 should work very fine with PSP and XBOX 